STARTFONT 2.1
FONT -FreeType-Micro 5-Medium-R-Normal--21-150-100-100-P-65-ISO10646-1
SIZE 15 100 100
FONTBOUNDINGBOX 15 19 -2 -6
COMMENT "Generated by fontforge, http://fontforge.sourceforge.net"
COMMENT ""
COMMENT "Converted from OpenType font "Micro5-Regular.ttf" by "otf2bdf 3.0"."
COMMENT ""
STARTPROPERTIES 19
FOUNDRY "FreeType"
FAMILY_NAME "Micro 5"
WEIGHT_NAME "Medium"
SLANT "R"
SETWIDTH_NAME "Normal"
ADD_STYLE_NAME ""
PIXEL_SIZE 21
POINT_SIZE 150
RESOLUTION_X 100
RESOLUTION_Y 100
SPACING "P"
AVERAGE_WIDTH 65
CHARSET_REGISTRY "ISO10646"
CHARSET_ENCODING "1"
FONT_ASCENT 15
FONT_DESCENT 5
COPYRIGHT "Copyright 2023 The Soft Type Project Authors (https://github.com/scfried/soft-type-micro)"
_OTF_FONTFILE "Micro5-Regular.ttf"
_OTF_PSNAME "Micro5-Regular"
ENDPROPERTIES
CHARS 113
STARTCHAR $0020
ENCODING 32
SWIDTH 288 0
DWIDTH 6 0
BBX 0 0 0 0
BITMAP
ENDCHAR
STARTCHAR $0021
ENCODING 33
SWIDTH 192 0
DWIDTH 4 0
BBX 2 10 0 0
BITMAP
C0
C0
C0
C0
C0
C0
00
00
C0
C0
ENDCHAR
STARTCHAR $0022
ENCODING 34
SWIDTH 384 0
DWIDTH 8 0
BBX 6 4 0 6
BITMAP
CC
CC
CC
CC
ENDCHAR
STARTCHAR $0023
ENCODING 35
SWIDTH 528 0
DWIDTH 11 0
BBX 10 10 0 0
BITMAP
0CC0
0CC0
FFC0
FFC0
3300
3300
FFC0
FFC0
CC00
CC00
ENDCHAR
STARTCHAR $0024
ENCODING 36
SWIDTH 480 0
DWIDTH 10 0
BBX 8 14 0 -2
BITMAP
0C
0C
FF
FF
CC
CC
FF
FF
33
33
FF
FF
30
30
ENDCHAR
STARTCHAR $0025
ENCODING 37
SWIDTH 528 0
DWIDTH 11 0
BBX 10 10 0 0
BITMAP
C0C0
C0C0
0300
0300
0C00
0C00
3000
3000
C0C0
C0C0
ENDCHAR
STARTCHAR $0026
ENCODING 38
SWIDTH 528 0
DWIDTH 11 0
BBX 10 14 0 -2
BITMAP
0C00
0C00
3FC0
3FC0
CC00
CC00
3F00
3F00
CC00
CC00
3FC0
3FC0
0C00
0C00
ENDCHAR
STARTCHAR $0027
ENCODING 39
SWIDTH 192 0
DWIDTH 4 0
BBX 2 4 0 6
BITMAP
C0
C0
C0
C0
ENDCHAR
STARTCHAR $0028
ENCODING 40
SWIDTH 288 0
DWIDTH 6 0
BBX 4 12 0 -2
BITMAP
30
30
C0
C0
C0
C0
C0
C0
C0
C0
30
30
ENDCHAR
STARTCHAR $0029
ENCODING 41
SWIDTH 288 0
DWIDTH 6 0
BBX 4 12 0 -2
BITMAP
C0
C0
30
30
30
30
30
30
30
30
C0
C0
ENDCHAR
STARTCHAR $002A
ENCODING 42
SWIDTH 384 0
DWIDTH 8 0
BBX 6 6 0 4
BITMAP
CC
CC
30
30
CC
CC
ENDCHAR
STARTCHAR $002B
ENCODING 43
SWIDTH 384 0
DWIDTH 8 0
BBX 6 6 0 2
BITMAP
30
30
FC
FC
30
30
ENDCHAR
STARTCHAR $002C
ENCODING 44
SWIDTH 192 0
DWIDTH 4 0
BBX 2 4 0 -2
BITMAP
C0
C0
C0
C0
ENDCHAR
STARTCHAR $002D
ENCODING 45
SWIDTH 384 0
DWIDTH 8 0
BBX 6 2 0 4
BITMAP
FC
FC
ENDCHAR
STARTCHAR $002E
ENCODING 46
SWIDTH 192 0
DWIDTH 4 0
BBX 2 2 0 0
BITMAP
C0
C0
ENDCHAR
STARTCHAR $002F
ENCODING 47
SWIDTH 384 0
DWIDTH 8 0
BBX 6 12 0 -2
BITMAP
0C
0C
0C
0C
30
30
30
30
C0
C0
C0
C0
ENDCHAR
STARTCHAR $0030
ENCODING 48
SWIDTH 384 0
DWIDTH 8 0
BBX 6 10 0 0
BITMAP
FC
FC
CC
CC
CC
CC
CC
CC
FC
FC
ENDCHAR
STARTCHAR $0031
ENCODING 49
SWIDTH 380 0
DWIDTH 8 0
BBX 4 10 1 0
BITMAP
F0
F0
30
30
30
30
30
30
30
30
ENDCHAR
STARTCHAR $0032
ENCODING 50
SWIDTH 384 0
DWIDTH 8 0
BBX 6 10 0 0
BITMAP
FC
FC
0C
0C
FC
FC
C0
C0
FC
FC
ENDCHAR
STARTCHAR $0033
ENCODING 51
SWIDTH 384 0
DWIDTH 8 0
BBX 6 10 0 0
BITMAP
FC
FC
0C
0C
3C
3C
0C
0C
FC
FC
ENDCHAR
STARTCHAR $0034
ENCODING 52
SWIDTH 384 0
DWIDTH 8 0
BBX 6 10 0 0
BITMAP
CC
CC
CC
CC
FC
FC
0C
0C
0C
0C
ENDCHAR
STARTCHAR $0035
ENCODING 53
SWIDTH 384 0
DWIDTH 8 0
BBX 6 10 0 0
BITMAP
FC
FC
C0
C0
FC
FC
0C
0C
FC
FC
ENDCHAR
STARTCHAR $0036
ENCODING 54
SWIDTH 384 0
DWIDTH 8 0
BBX 6 10 0 0
BITMAP
FC
FC
C0
C0
FC
FC
CC
CC
FC
FC
ENDCHAR
STARTCHAR $0037
ENCODING 55
SWIDTH 384 0
DWIDTH 8 0
BBX 6 10 0 0
BITMAP
FC
FC
0C
0C
0C
0C
30
30
30
30
ENDCHAR
STARTCHAR $0038
ENCODING 56
SWIDTH 384 0
DWIDTH 8 0
BBX 6 10 0 0
BITMAP
FC
FC
CC
CC
FC
FC
CC
CC
FC
FC
ENDCHAR
STARTCHAR $0039
ENCODING 57
SWIDTH 384 0
DWIDTH 8 0
BBX 6 10 0 0
BITMAP
FC
FC
CC
CC
FC
FC
0C
0C
FC
FC
ENDCHAR
STARTCHAR $003A
ENCODING 58
SWIDTH 192 0
DWIDTH 4 0
BBX 2 8 0 0
BITMAP
C0
C0
00
00
00
00
C0
C0
ENDCHAR
STARTCHAR $003B
ENCODING 59
SWIDTH 192 0
DWIDTH 4 0
BBX 2 10 0 -2
BITMAP
C0
C0
00
00
00
00
C0
C0
C0
C0
ENDCHAR
STARTCHAR $003C
ENCODING 60
SWIDTH 384 0
DWIDTH 8 0
BBX 6 6 0 2
BITMAP
3C
3C
C0
C0
3C
3C
ENDCHAR
STARTCHAR $003D
ENCODING 61
SWIDTH 384 0
DWIDTH 8 0
BBX 6 6 0 2
BITMAP
FC
FC
00
00
FC
FC
ENDCHAR
STARTCHAR $003E
ENCODING 62
SWIDTH 384 0
DWIDTH 8 0
BBX 6 6 0 2
BITMAP
F0
F0
0C
0C
F0
F0
ENDCHAR
STARTCHAR $003F
ENCODING 63
SWIDTH 384 0
DWIDTH 8 0
BBX 6 10 0 0
BITMAP
FC
FC
0C
0C
30
30
00
00
30
30
ENDCHAR
STARTCHAR $0040
ENCODING 64
SWIDTH 624 0
DWIDTH 13 0
BBX 11 14 0 -2
BITMAP
FFE0
FFE0
C020
C020
CFC0
CFC0
CCC0
CCC0
CFE0
CFE0
C000
C000
FF00
FF00
ENDCHAR
STARTCHAR $0041
ENCODING 65
SWIDTH 384 0
DWIDTH 8 0
BBX 6 10 0 0
BITMAP
30
30
CC
CC
FC
FC
CC
CC
CC
CC
ENDCHAR
STARTCHAR $0042
ENCODING 66
SWIDTH 384 0
DWIDTH 8 0
BBX 6 10 0 0
BITMAP
FC
FC
CC
CC
F0
F0
CC
CC
FC
FC
ENDCHAR
STARTCHAR $0043
ENCODING 67
SWIDTH 288 0
DWIDTH 6 0
BBX 4 10 0 0
BITMAP
F0
F0
C0
C0
C0
C0
C0
C0
F0
F0
ENDCHAR
STARTCHAR $0044
ENCODING 68
SWIDTH 384 0
DWIDTH 8 0
BBX 6 10 0 0
BITMAP
F0
F0
CC
CC
CC
CC
CC
CC
F0
F0
ENDCHAR
STARTCHAR $0045
ENCODING 69
SWIDTH 384 0
DWIDTH 8 0
BBX 6 10 0 0
BITMAP
FC
FC
C0
C0
F0
F0
C0
C0
FC
FC
ENDCHAR
STARTCHAR $0046
ENCODING 70
SWIDTH 384 0
DWIDTH 8 0
BBX 6 10 0 0
BITMAP
FC
FC
C0
C0
F0
F0
C0
C0
C0
C0
ENDCHAR
STARTCHAR $0047
ENCODING 71
SWIDTH 384 0
DWIDTH 8 0
BBX 6 10 0 0
BITMAP
FC
FC
C0
C0
CC
CC
CC
CC
F0
F0
ENDCHAR
STARTCHAR $0048
ENCODING 72
SWIDTH 384 0
DWIDTH 8 0
BBX 6 10 0 0
BITMAP
CC
CC
CC
CC
FC
FC
CC
CC
CC
CC
ENDCHAR
STARTCHAR $0049
ENCODING 73
SWIDTH 192 0
DWIDTH 4 0
BBX 2 10 0 0
BITMAP
C0
C0
C0
C0
C0
C0
C0
C0
C0
C0
ENDCHAR
STARTCHAR $004A
ENCODING 74
SWIDTH 288 0
DWIDTH 6 0
BBX 4 10 0 0
BITMAP
30
30
30
30
30
30
30
30
C0
C0
ENDCHAR
STARTCHAR $004B
ENCODING 75
SWIDTH 384 0
DWIDTH 8 0
BBX 6 10 0 0
BITMAP
CC
CC
CC
CC
F0
F0
CC
CC
CC
CC
ENDCHAR
STARTCHAR $004C
ENCODING 76
SWIDTH 288 0
DWIDTH 6 0
BBX 4 10 0 0
BITMAP
C0
C0
C0
C0
C0
C0
C0
C0
F0
F0
ENDCHAR
STARTCHAR $004D
ENCODING 77
SWIDTH 528 0
DWIDTH 11 0
BBX 10 10 0 0
BITMAP
F300
F300
CCC0
CCC0
CCC0
CCC0
CCC0
CCC0
CCC0
CCC0
ENDCHAR
STARTCHAR $004E
ENCODING 78
SWIDTH 384 0
DWIDTH 8 0
BBX 6 10 0 0
BITMAP
F0
F0
CC
CC
CC
CC
CC
CC
CC
CC
ENDCHAR
STARTCHAR $004F
ENCODING 79
SWIDTH 384 0
DWIDTH 8 0
BBX 6 10 0 0
BITMAP
FC
FC
CC
CC
CC
CC
CC
CC
FC
FC
ENDCHAR
STARTCHAR $0050
ENCODING 80
SWIDTH 384 0
DWIDTH 8 0
BBX 6 10 0 0
BITMAP
FC
FC
CC
CC
FC
FC
C0
C0
C0
C0
ENDCHAR
STARTCHAR $0051
ENCODING 81
SWIDTH 384 0
DWIDTH 8 0
BBX 6 12 0 -2
BITMAP
FC
FC
CC
CC
CC
CC
CC
CC
CC
CC
30
30
ENDCHAR
STARTCHAR $0052
ENCODING 82
SWIDTH 384 0
DWIDTH 8 0
BBX 6 10 0 0
BITMAP
FC
FC
CC
CC
F0
F0
CC
CC
CC
CC
ENDCHAR
STARTCHAR $0053
ENCODING 83
SWIDTH 384 0
DWIDTH 8 0
BBX 6 10 0 0
BITMAP
FC
FC
C0
C0
FC
FC
0C
0C
FC
FC
ENDCHAR
STARTCHAR $0054
ENCODING 84
SWIDTH 384 0
DWIDTH 8 0
BBX 6 10 0 0
BITMAP
FC
FC
30
30
30
30
30
30
30
30
ENDCHAR
STARTCHAR $0055
ENCODING 85
SWIDTH 384 0
DWIDTH 8 0
BBX 6 10 0 0
BITMAP
CC
CC
CC
CC
CC
CC
CC
CC
FC
FC
ENDCHAR
STARTCHAR $0056
ENCODING 86
SWIDTH 384 0
DWIDTH 8 0
BBX 6 10 0 0
BITMAP
CC
CC
CC
CC
CC
CC
CC
CC
30
30
ENDCHAR
STARTCHAR $0057
ENCODING 87
SWIDTH 528 0
DWIDTH 11 0
BBX 10 10 0 0
BITMAP
CCC0
CCC0
CCC0
CCC0
CCC0
CCC0
CCC0
CCC0
3300
3300
ENDCHAR
STARTCHAR $0058
ENCODING 88
SWIDTH 384 0
DWIDTH 8 0
BBX 6 10 0 0
BITMAP
CC
CC
CC
CC
30
30
CC
CC
CC
CC
ENDCHAR
STARTCHAR $0059
ENCODING 89
SWIDTH 384 0
DWIDTH 8 0
BBX 6 10 0 0
BITMAP
CC
CC
CC
CC
CC
CC
30
30
30
30
ENDCHAR
STARTCHAR $005A
ENCODING 90
SWIDTH 384 0
DWIDTH 8 0
BBX 6 10 0 0
BITMAP
FC
FC
0C
0C
30
30
C0
C0
FC
FC
ENDCHAR
STARTCHAR $005B
ENCODING 91
SWIDTH 288 0
DWIDTH 6 0
BBX 4 12 0 -2
BITMAP
F0
F0
C0
C0
C0
C0
C0
C0
C0
C0
F0
F0
ENDCHAR
STARTCHAR $005C
ENCODING 92
SWIDTH 384 0
DWIDTH 8 0
BBX 6 12 0 -2
BITMAP
C0
C0
C0
C0
30
30
30
30
0C
0C
0C
0C
ENDCHAR
STARTCHAR $005D
ENCODING 93
SWIDTH 288 0
DWIDTH 6 0
BBX 4 12 0 -2
BITMAP
F0
F0
30
30
30
30
30
30
30
30
F0
F0
ENDCHAR
STARTCHAR $005E
ENCODING 94
SWIDTH 384 0
DWIDTH 8 0
BBX 6 4 0 6
BITMAP
30
30
CC
CC
ENDCHAR
STARTCHAR $005F
ENCODING 95
SWIDTH 480 0
DWIDTH 10 0
BBX 8 2 0 -2
BITMAP
FF
FF
ENDCHAR
STARTCHAR $0060
ENCODING 96
SWIDTH 192 0
DWIDTH 4 0
BBX 4 3 0 10
BITMAP
C0
F0
30
ENDCHAR
STARTCHAR $0061
ENCODING 97
SWIDTH 384 0
DWIDTH 8 0
BBX 6 8 0 0
BITMAP
3C
3C
CC
CC
CC
CC
3C
3C
ENDCHAR
STARTCHAR $0062
ENCODING 98
SWIDTH 384 0
DWIDTH 8 0
BBX 6 10 0 0
BITMAP
C0
C0
F0
F0
CC
CC
CC
CC
F0
F0
ENDCHAR
STARTCHAR $0063
ENCODING 99
SWIDTH 384 0
DWIDTH 8 0
BBX 6 8 0 0
BITMAP
3C
3C
C0
C0
C0
C0
3C
3C
ENDCHAR
STARTCHAR $0064
ENCODING 100
SWIDTH 384 0
DWIDTH 8 0
BBX 6 10 0 0
BITMAP
0C
0C
3C
3C
CC
CC
CC
CC
3C
3C
ENDCHAR
STARTCHAR $0065
ENCODING 101
SWIDTH 384 0
DWIDTH 8 0
BBX 6 10 0 -2
BITMAP
30
30
CC
CC
FC
FC
C0
C0
30
30
ENDCHAR
STARTCHAR $0066
ENCODING 102
SWIDTH 288 0
DWIDTH 6 0
BBX 4 10 0 0
BITMAP
30
30
C0
C0
F0
F0
C0
C0
C0
C0
ENDCHAR
STARTCHAR $0067
ENCODING 103
SWIDTH 384 0
DWIDTH 8 0
BBX 6 10 0 -2
BITMAP
3C
3C
CC
CC
CC
CC
0C
0C
FC
FC
ENDCHAR
STARTCHAR $0068
ENCODING 104
SWIDTH 384 0
DWIDTH 8 0
BBX 6 10 0 0
BITMAP
C0
C0
F0
F0
CC
CC
CC
CC
CC
CC
ENDCHAR
STARTCHAR $0069
ENCODING 105
SWIDTH 192 0
DWIDTH 4 0
BBX 2 10 0 0
BITMAP
C0
C0
00
00
C0
C0
C0
C0
C0
C0
ENDCHAR
STARTCHAR $006A
ENCODING 106
SWIDTH 192 0
DWIDTH 4 0
BBX 4 12 -2 -2
BITMAP
30
30
00
00
30
30
30
30
30
30
C0
C0
ENDCHAR
STARTCHAR $006B
ENCODING 107
SWIDTH 384 0
DWIDTH 8 0
BBX 6 10 0 0
BITMAP
C0
C0
CC
CC
F0
F0
CC
CC
CC
CC
ENDCHAR
STARTCHAR $006C
ENCODING 108
SWIDTH 192 0
DWIDTH 4 0
BBX 2 10 0 0
BITMAP
C0
C0
C0
C0
C0
C0
C0
C0
C0
C0
ENDCHAR
STARTCHAR $006D
ENCODING 109
SWIDTH 528 0
DWIDTH 11 0
BBX 10 8 0 0
BITMAP
F300
F300
CCC0
CCC0
CCC0
CCC0
CCC0
CCC0
ENDCHAR
STARTCHAR $006E
ENCODING 110
SWIDTH 384 0
DWIDTH 8 0
BBX 6 8 0 0
BITMAP
F0
F0
CC
CC
CC
CC
CC
CC
ENDCHAR
STARTCHAR $006F
ENCODING 111
SWIDTH 384 0
DWIDTH 8 0
BBX 6 8 0 0
BITMAP
30
30
CC
CC
CC
CC
30
30
ENDCHAR
STARTCHAR $0070
ENCODING 112
SWIDTH 384 0
DWIDTH 8 0
BBX 6 10 0 -2
BITMAP
F0
F0
CC
CC
CC
CC
F0
F0
C0
C0
ENDCHAR
STARTCHAR $0071
ENCODING 113
SWIDTH 384 0
DWIDTH 8 0
BBX 6 10 0 -2
BITMAP
3C
3C
CC
CC
CC
CC
3C
3C
0C
0C
ENDCHAR
STARTCHAR $0072
ENCODING 114
SWIDTH 288 0
DWIDTH 6 0
BBX 4 8 0 0
BITMAP
F0
F0
C0
C0
C0
C0
C0
C0
ENDCHAR
STARTCHAR $0073
ENCODING 115
SWIDTH 384 0
DWIDTH 8 0
BBX 6 8 0 0
BITMAP
FC
FC
C0
C0
0C
0C
FC
FC
ENDCHAR
STARTCHAR $0074
ENCODING 116
SWIDTH 288 0
DWIDTH 6 0
BBX 4 10 0 0
BITMAP
C0
C0
F0
F0
C0
C0
C0
C0
F0
F0
ENDCHAR
STARTCHAR $0075
ENCODING 117
SWIDTH 384 0
DWIDTH 8 0
BBX 6 8 0 0
BITMAP
CC
CC
CC
CC
CC
CC
3C
3C
ENDCHAR
STARTCHAR $0076
ENCODING 118
SWIDTH 384 0
DWIDTH 8 0
BBX 6 8 0 0
BITMAP
CC
CC
CC
CC
CC
CC
30
30
ENDCHAR
STARTCHAR $0077
ENCODING 119
SWIDTH 528 0
DWIDTH 11 0
BBX 10 8 0 0
BITMAP
CCC0
CCC0
CCC0
CCC0
CCC0
CCC0
3300
3300
ENDCHAR
STARTCHAR $0078
ENCODING 120
SWIDTH 384 0
DWIDTH 8 0
BBX 6 8 0 0
BITMAP
CC
CC
30
30
30
30
CC
CC
ENDCHAR
STARTCHAR $0079
ENCODING 121
SWIDTH 384 0
DWIDTH 8 0
BBX 6 10 0 -2
BITMAP
CC
CC
CC
CC
CC
CC
30
30
C0
C0
ENDCHAR
STARTCHAR $007A
ENCODING 122
SWIDTH 480 0
DWIDTH 10 0
BBX 8 8 0 0
BITMAP
F3
F3
0C
0C
30
30
CF
CF
ENDCHAR
STARTCHAR $007B
ENCODING 123
SWIDTH 384 0
DWIDTH 8 0
BBX 6 12 0 -2
BITMAP
3C
3C
30
30
C0
C0
C0
C0
30
30
3C
3C
ENDCHAR
STARTCHAR $007C
ENCODING 124
SWIDTH 192 0
DWIDTH 4 0
BBX 2 12 0 -2
BITMAP
C0
C0
C0
C0
C0
C0
C0
C0
C0
C0
C0
C0
ENDCHAR
STARTCHAR $007D
ENCODING 125
SWIDTH 384 0
DWIDTH 8 0
BBX 6 12 0 -2
BITMAP
F0
F0
30
30
0C
0C
0C
0C
30
30
F0
F0
ENDCHAR
STARTCHAR $007E
ENCODING 126
SWIDTH 480 0
DWIDTH 10 0
BBX 8 4 0 4
BITMAP
F3
F3
CF
CF
ENDCHAR
STARTCHAR $00A0
ENCODING 160
SWIDTH 288 0
DWIDTH 6 0
BBX 0 0 0 0
BITMAP
ENDCHAR
STARTCHAR $00A1
ENCODING 161
SWIDTH 192 0
DWIDTH 4 0
BBX 2 10 0 0
BITMAP
C0
C0
00
00
C0
C0
C0
C0
C0
C0
ENDCHAR
STARTCHAR $00A2
ENCODING 162
SWIDTH 480 0
DWIDTH 10 0
BBX 8 12 0 -2
BITMAP
0C
0C
3F
3F
CC
CC
CC
CC
3F
3F
0C
0C
ENDCHAR
STARTCHAR $00A3
ENCODING 163
SWIDTH 480 0
DWIDTH 10 0
BBX 8 10 0 0
BITMAP
0C
0C
30
30
FC
FC
30
30
FF
FF
ENDCHAR
STARTCHAR $00A5
ENCODING 165
SWIDTH 384 0
DWIDTH 8 0
BBX 6 10 0 0
BITMAP
CC
CC
CC
CC
30
30
FC
FC
30
30
ENDCHAR
STARTCHAR $00A7
ENCODING 167
SWIDTH 480 0
DWIDTH 10 0
BBX 8 14 0 -2
BITMAP
3C
3C
C0
C0
3C
3C
C3
C3
3C
3C
03
03
3C
3C
ENDCHAR
STARTCHAR $00A8
ENCODING 168
SWIDTH 288 0
DWIDTH 6 0
BBX 6 2 0 10
BITMAP
CC
CC
ENDCHAR
STARTCHAR $00A9
ENCODING 169
SWIDTH 720 0
DWIDTH 15 0
BBX 13 14 0 -2
BITMAP
3FE0
3FE0
C018
C018
C3D8
C3D8
CC18
CC18
C3D8
C3D8
C018
C018
3FE0
3FE0
ENDCHAR
STARTCHAR $00AA
ENCODING 170
SWIDTH 384 0
DWIDTH 8 0
BBX 6 8 0 0
BITMAP
3C
3C
CC
CC
CC
CC
3C
3C
ENDCHAR
STARTCHAR $00AB
ENCODING 171
SWIDTH 528 0
DWIDTH 11 0
BBX 10 6 0 2
BITMAP
30C0
30C0
C300
C300
30C0
30C0
ENDCHAR
STARTCHAR $00AE
ENCODING 174
SWIDTH 624 0
DWIDTH 13 0
BBX 11 10 0 2
BITMAP
3FC0
3FC0
C320
C320
CC20
CC20
CC20
CC20
3FC0
3FC0
ENDCHAR
STARTCHAR $00AF
ENCODING 175
SWIDTH 288 0
DWIDTH 6 0
BBX 6 2 0 10
BITMAP
FC
FC
ENDCHAR
STARTCHAR $00B0
ENCODING 176
SWIDTH 384 0
DWIDTH 8 0
BBX 6 6 0 6
BITMAP
30
30
CC
CC
30
30
ENDCHAR
STARTCHAR $00B4
ENCODING 180
SWIDTH 192 0
DWIDTH 4 0
BBX 4 3 0 10
BITMAP
30
F0
C0
ENDCHAR
STARTCHAR $00B6
ENCODING 182
SWIDTH 480 0
DWIDTH 10 0
BBX 8 14 0 -2
BITMAP
F3
F3
F3
F3
F3
F3
33
33
33
33
33
33
33
33
ENDCHAR
STARTCHAR $00B7
ENCODING 183
SWIDTH 192 0
DWIDTH 4 0
BBX 2 2 0 4
BITMAP
C0
C0
ENDCHAR
STARTCHAR $00B8
ENCODING 184
SWIDTH 192 0
DWIDTH 4 0
BBX 4 6 0 -6
BITMAP
C0
C0
30
30
C0
C0
ENDCHAR
STARTCHAR $00BA
ENCODING 186
SWIDTH 384 0
DWIDTH 8 0
BBX 6 8 0 0
BITMAP
30
30
CC
CC
CC
CC
30
30
ENDCHAR
ENDFONT
